/* XPM */
static char *_0d3571a0b004374c78e7f9d370348b8AT0vcvKBzEYfm87w[] = {
/* columns rows colors chars-per-pixel */
"20 20 126 2 ",
"   c #0E0D0B",
".  c #0F0E0C",
"X  c #0F0D0E",
"o  c #100E0F",
"O  c #10100E",
"+  c #11100E",
"@  c #110F10",
"#  c #130F10",
"$  c #121011",
"%  c #121210",
"&  c #131112",
"*  c #141213",
"=  c #151412",
"-  c #151314",
";  c #181415",
":  c #191718",
">  c #1A1819",
",  c #1B191A",
"<  c #1C1B19",
"1  c #1C1A1B",
"2  c #1D1C1A",
"3  c #1E1D1B",
"4  c #1F1B1C",
"5  c #1E1C1D",
"6  c #1F1E1C",
"7  c #1F1F1D",
"8  c #1F1D1E",
"9  c #201B1F",
"0  c #201C1D",
"q  c #201F1D",
"w  c #211D1E",
"e  c #231D1F",
"r  c #201E1F",
"t  c #221E1F",
"y  c #221D21",
"u  c #211F20",
"i  c #231F20",
"p  c #231E22",
"a  c #222021",
"s  c #232122",
"d  c #242021",
"f  c #252122",
"g  c #272123",
"h  c #242223",
"j  c #262223",
"k  c #252324",
"l  c #272324",
"z  c #272226",
"x  c #262425",
"c  c #272526",
"v  c #282425",
"b  c #282627",
"n  c #2A2627",
"m  c #2C2829",
"M  c #595856",
"N  c #5B595A",
"B  c #5D5C5A",
"V  c #5D5D5B",
"C  c #5E5E5C",
"Z  c #60605E",
"A  c #656462",
"S  c #666465",
"D  c #7C7C7A",
"F  c #7D7B7C",
"G  c #7F7F7D",
"H  c #7F7D7E",
"J  c #838381",
"K  c #848283",
"L  c #848482",
"P  c #8A8889",
"I  c #969495",
"U  c #989896",
"Y  c #9A9899",
"T  c #9B9B99",
"R  c #9F9F9D",
"E  c #A2A0A1",
"W  c #A4A2A3",
"Q  c #C6C4C5",
"!  c #C8C6C7",
"~  c #C9C7C8",
"^  c #CCCACB",
"/  c #D2D1CF",
"(  c #D2D2D0",
")  c #D3D1D2",
"_  c #D4D4D2",
"`  c #D9D9D7",
"'  c #DDDCDA",
"]  c #DFDEDC",
"[  c #DFDFDD",
"{  c #DFDDDE",
"}  c #E0E0DE",
"|  c #E1E0DE",
" . c #E2E2E0",
".. c #E3E3E1",
"X. c #E4E3E1",
"o. c #F5F5F3",
"O. c #F6F6F4",
"+. c #F8F7F5",
"@. c #F9FAF5",
"#. c #F8F8F6",
"$. c #F9F8F6",
"%. c #F9F9F7",
"&. c #FAF9F7",
"*. c #FBFCF7",
"=. c #FAFAF8",
"-. c #FBFAF8",
";. c #FBFBF9",
":. c #FBF9FA",
">. c #FCFBF9",
",. c #FAFCF9",
"<. c #FCFDF8",
"1. c #FCFEF9",
"2. c #FDFEF9",
"3. c #FCFCFA",
"4. c #FDFDFB",
"5. c #FEFDFB",
"6. c #FDFFFA",
"7. c #FCFEFB",
"8. c #FEFFFB",
"9. c #FFFFFB",
"0. c #FDFFFC",
"q. c #FEFEFC",
"w. c #FFFEFC",
"e. c #FEFFFD",
"r. c #FFFFFD",
"t. c #FFFEFF",
/* pixels */
"1.1.e.1.e.1.1.1.;.;.&.;.1.e.e.1.e.1.e.e.",
"1.1.,.e.e.1.1.e.e.e.1.e.1.1.1.e.;.e.1.1.",
"e.,.e.e.&.e.;.{ W K P E ' e.1.;.e.1.1.e.",
"e.e.1.;.e...S 8 o - X @ 8 A X.e.o.e.1.e.",
";.1.1.e.! x - t i f n i f @ x ^ e.&.e.1.",
"e.e.1.} x : s s f t t f f f > k ..e.1.e.",
"e.&.e.N $ x f i t f t t i t m @ Z e.;.e.",
"&.e.) 1 k 8 f t f i i t f i t s 3 _ e.&.",
">.1.Y $ f f t f i i f t i f t f O Y e.1.",
";.e.F @ f f f t 9 k t t f i t x O D e.&.",
"+.e.H X n k 4 f f i 4 f f t i s   J e.&.",
">.e.I X n t f t t t k f 4 i f x = U e.&.",
";.e./ t t i i f f t i t f t i 8 1 ) e.;.",
"e.>.e.M - x 4 t f f i i t f k - V e.1.;.",
"e.;.e.{ s > n i t i f f f n ; s } e.;.e.",
"e.e.&.e.Q i * s x s f f t $ n ~ e.&.e.e.",
"1.*.e.&.e.{ C 8 O O X $ 3 V X.e.1.1.1.e.",
"1.1.1.e.O.1.e.) R H L Y ` e.e.&.1.1.e.e.",
"1.1.e.e.e.;.1.e.e.e.e.e.e.&.;.e.1.e.e.e.",
"1.&.e.1.1.1.1.&.;.;.;.;.&.1.e.;.1.1.1.1."
};
