/* XPM */
static char *aac0e6cbd2214e059b8f8b03edb0bfcab8vC3WKe8WoYgPIj[] = {
/* columns rows colors chars-per-pixel */
"20 20 170 2 ",
"   c None",
".  c #01633D",
"X  c #00663D",
"o  c #0C6339",
"O  c #0C633A",
"+  c #09633F",
"@  c #01683E",
"#  c #176C3F",
"$  c #076640",
"%  c #006B41",
"&  c #076F42",
"*  c #0E6C46",
"=  c #116641",
"-  c #106642",
";  c #146643",
":  c #176C40",
">  c #146F47",
",  c #007342",
"<  c #007543",
"1  c #037045",
"2  c #027145",
"3  c #0F7246",
"4  c #007943",
"5  c #007B45",
"6  c #007B46",
"7  c #007B47",
"8  c #007C44",
"9  c #007C47",
"0  c #0B7847",
"q  c #0C7249",
"w  c #017B4A",
"e  c #007E49",
"r  c #177248",
"t  c #187449",
"y  c #1C764B",
"u  c #167F4E",
"i  c #297D4D",
"p  c #287E4D",
"a  c #267F51",
"s  c #008249",
"d  c #008548",
"f  c #00844A",
"g  c #0D824C",
"h  c #0A854D",
"j  c #00884A",
"k  c #008B4A",
"l  c #008A4B",
"z  c #008D4B",
"x  c #00894D",
"c  c #008A4D",
"v  c #008F4C",
"b  c #00904E",
"n  c #00924E",
"m  c #00964E",
"M  c #008F50",
"N  c #138F54",
"B  c #009152",
"V  c #029450",
"C  c #009750",
"Z  c #0A9553",
"A  c #009950",
"S  c #009A50",
"D  c #009E50",
"F  c #009854",
"G  c #009E58",
"H  c #1E9F5F",
"J  c #2C8B59",
"K  c #308E5B",
"L  c #2C955E",
"P  c #239C5E",
"I  c #00A152",
"U  c #00A253",
"Y  c #00A054",
"T  c #00A154",
"R  c #00A356",
"E  c #00A454",
"W  c #00A554",
"Q  c #00A854",
"!  c #00AC57",
"~  c #00A459",
"^  c #00A55B",
"/  c #0DA55D",
"(  c #00AA5D",
")  c #00B157",
"_  c #00B259",
"`  c #00B15B",
"'  c #00B459",
"]  c #00B559",
"[  c #00B65B",
"{  c #00B35C",
"}  c #00B15E",
"|  c #00B65C",
" . c #00B85A",
".. c #00BD5F",
"X. c #0FAB62",
"o. c #04B060",
"O. c #00B762",
"+. c #07B561",
"@. c #01B860",
"#. c #00B861",
"$. c #00BB63",
"%. c #00BF61",
"&. c #00C15E",
"*. c #00C35F",
"=. c #00C261",
"-. c #01C263",
";. c #00C661",
":. c #00C761",
">. c #00C465",
",. c #00C965",
"<. c #02C867",
"1. c #08C76B",
"2. c #00C869",
"3. c #00CA69",
"4. c #00C96A",
"5. c #00CD68",
"6. c #02CC69",
"7. c #00CF69",
"8. c #00CE6A",
"9. c #00CF6B",
"0. c #04D16F",
"q. c #01CF73",
"w. c #04D170",
"e. c #05D170",
"r. c #03D671",
"t. c #05D176",
"y. c #0CD373",
"u. c #09D276",
"i. c #09D776",
"p. c #0CD575",
"a. c #0EDB7A",
"s. c #12D475",
"d. c #18D577",
"f. c #1DDD7D",
"g. c #22D67C",
"h. c #2AD77D",
"j. c #3ADA7F",
"k. c #27D682",
"l. c #3ED882",
"z. c #3FD882",
"x. c #39DF83",
"c. c #41D983",
"v. c #46DA82",
"b. c #4AD986",
"n. c #51DA85",
"m. c #51DA86",
"M. c #60DB8B",
"N. c #6EDD8E",
"B. c #73DF90",
"V. c #7ADF93",
"C. c #7CDF94",
"Z. c #5EE289",
"A. c #62E48C",
"S. c #74E18F",
"D. c #82DF96",
"F. c #83E293",
"G. c #82E096",
"H. c #8CE19A",
"J. c #8DE898",
"K. c #8CEB9A",
"L. c #96E49D",
"P. c #A1E99F",
"I. c #9FE5A1",
"U. c #9AF0A3",
"Y. c #A9E7A2",
"T. c #A8E6A6",
"R. c #AAE8A4",
"E. c #B0E8A9",
"W. c #B8E9AC",
"Q. c #C3EBB1",
/* pixels */
"                                        ",
"                                        ",
"                A.x.a.i.                ",
"            U.K.S.v.p.7.<.1.            ",
"          K.P.Y.L.N.h.7.*.| +.          ",
"        Z.F.R.Q.E.G.c.w.;.] E /         ",
"      f.j.B.I.W.T.C.l.0.;.] I V H       ",
"      r.s.n.V.H.D.M.g.7.=.} G c N       ",
"      7.7.d.l.n.b.k.t.2.$.( F f g       ",
"      =.;.7.w.y.u.q.2.%._ T v 8 0       ",
"      $. .*.;.<.2.>..._ E m f , 3       ",
"      o.Q ) ] $.O.} ! I V l 6 % t       ",
"      X.S D T ~ ~ T S n c e 1 $ a       ",
"        Z l M B n z l s w q - r         ",
"        P h 6 8 6 4 < 1 * ; > J         ",
"          L u & @ X . + - y K           ",
"              p # o o : p               ",
"                                        ",
"                                        ",
"                                        "
};
