/* XPM */
static char *a237b3986b5b4ed2ff8d94de28478bfcRia9pA275rptBvEV[] = {
/* columns rows colors chars-per-pixel */
"18 20 10 1 ",
"  c None",
". c #222222",
"X c #29353B",
"o c #585754",
"O c #2C3C44",
"+ c #222222",
"@ c #417089",
"# c #FDF7ED",
"$ c #72D6CE",
"% c white",
/* pixels */
"  .............   ",
"  ..+++++++Xo++   ",
"  ..+@@@@@@++#+   ",
"  ..+@$$$$$$$#+   ",
"  ..+@$$$$$$$#+   ",
"  ..+@$$$$$$$#+   ",
"  ..+@$$$$$$$#+   ",
"  ..+@$++++++++   ",
"  ..+@$$$$$++#+   ",
" +++++++$$$++#+++ ",
" +@@$$#+$$$++$+#+ ",
" +@@$$#+@@@++@+#+ ",
" +@@$$#+$$$$$#+#+ ",
" +@@$$#+$$$$$#+#+ ",
" +++++++$$$$$#+++ ",
"  ..+@@@@@@@@$+   ",
"  ..+@$$$$$$$#+   ",
"  ..+@@+++++@@+   ",
"  ..+@+X...+@+O   ",
"  ..++O. ..++O.   "
};
